<?xml version="1.0" standalone="no"?>
<!DOCTYPE svg PUBLIC "-//W3C//DTD SVG 20010904//EN"
 "http://www.w3.org/TR/2001/REC-SVG-20010904/DTD/svg10.dtd">
<svg version="1.0" xmlns="http://www.w3.org/2000/svg"
 width="260.000000pt" height="260.000000pt" viewBox="0 0 260.000000 260.000000"
 preserveAspectRatio="xMidYMid meet">
<metadata>
Created by potrace 1.11, written by Peter Selinger 2001-2013
</metadata>
<g transform="translate(0.000000,260.000000) scale(0.100000,-0.100000)"
fill="#000000" stroke="none">
<path d="M0 1300 l0 -1300 1300 0 1300 0 0 1300 0 1300 -1300 0 -1300 0 0
-1300z m2540 5 l0 -1245 -1245 0 -1245 0 0 1245 0 1245 1245 0 1245 0 0 -1245z"/>
<path d="M1432 2220 c-1 -25 3 -55 10 -67 12 -25 5 -115 -27 -326 -13 -85 -14
-111 -5 -122 17 -21 83 -19 102 3 8 9 24 63 34 120 l19 103 105 -5 c58 -2 124
-7 146 -11 38 -6 43 -4 63 24 12 17 20 35 17 39 -5 8 -64 16 -251 31 -75 6
-80 7 -79 29 0 12 1 43 2 68 l2 47 108 -7 c211 -14 192 -18 220 37 14 26 23
50 20 53 -8 7 -225 23 -363 26 l-121 3 -2 -45z"/>
<path d="M2022 2220 c-1 -25 3 -55 10 -67 12 -25 5 -115 -27 -326 -13 -85 -14
-111 -5 -122 17 -21 83 -19 102 3 8 9 24 63 34 120 l19 103 105 -5 c58 -2 124
-7 146 -11 38 -6 43 -4 63 24 12 17 20 35 17 39 -5 8 -64 16 -251 31 -75 6
-80 7 -79 29 0 12 1 43 2 68 l2 47 108 -7 c211 -14 192 -18 220 37 14 26 23
50 20 53 -8 7 -225 23 -363 26 l-121 3 -2 -45z"/>
</g>
</svg>
